<?xml version="1.0" encoding="UTF-8" standalone="no"?>
<!DOCTYPE svg PUBLIC "-//W3C//DTD SVG 1.1//EN" "http://www.w3.org/Graphics/SVG/1.1/DTD/svg11.dtd">
<svg version="1.1" xmlns="http://www.w3.org/2000/svg" xmlns:xlink="http://www.w3.org/1999/xlink" preserveAspectRatio="xMidYMid meet" viewBox="0 0 133 102" width="133" height="102"><defs><path d="M0 40.31C0 18.05 19.78 0 44.17 0C68.57 0 88.35 18.05 88.35 40.31C88.35 62.58 68.57 80.63 44.18 80.63C38.25 80.63 32.6 79.57 27.43 77.64C26.34 78.35 20.89 81.92 11.08 88.35L13.63 69.43C4.54 57.65 0 47.95 0 40.31Z" id="a56aJS6mKc"></path><linearGradient id="gradientht4qXbRwB" gradientUnits="userSpaceOnUse" x1="44.17" y1="0" x2="44.17" y2="88.35"><stop style="stop-color: #5ee08c;stop-opacity: 0.75" offset="0%"></stop><stop style="stop-color: #e6ffef;stop-opacity: 1" offset="100%"></stop></linearGradient><path d="M132.52 53.88C132.52 31.62 112.75 13.57 88.35 13.57C63.95 13.57 44.17 31.61 44.17 53.88C44.17 76.15 63.95 94.2 88.35 94.2C94.27 94.2 99.93 93.13 105.09 91.2C106.18 91.92 111.63 95.49 121.44 101.92L118.9 83C127.98 71.22 132.52 61.51 132.52 53.88Z" id="a3cqZCGINH"></path><linearGradient id="gradientaqGp3ZJIn" gradientUnits="userSpaceOnUse" x1="88.35" y1="13.57" x2="88.35" y2="101.92"><stop style="stop-color: #ffa6a6;stop-opacity: 0.67" offset="0%"></stop><stop style="stop-color: #f0b8b8;stop-opacity: 0.61" offset="100%"></stop></linearGradient></defs><g><g><g><use xlink:href="#a56aJS6mKc" opacity="1" fill="url(#gradientht4qXbRwB)"></use></g><g><use xlink:href="#a3cqZCGINH" opacity="1" fill="url(#gradientaqGp3ZJIn)"></use></g></g></g></svg>